<svg width="24" height="24" viewBox="0 0 24 24" fill="none" xmlns="http://www.w3.org/2000/svg">
<g clip-path="url(#clip0_1222_36917)">
<path d="M22.2857 11.1429H15.4286C14.9552 11.1429 14.5714 11.5267 14.5714 12.0001V22.2858C14.5714 22.7591 14.9552 23.1429 15.4286 23.1429H22.2857C22.759 23.1429 23.1428 22.7591 23.1428 22.2858V12.0001C23.1428 11.5267 22.759 11.1429 22.2857 11.1429Z" stroke="black" stroke-width="2" stroke-linecap="round" stroke-linejoin="round"/>
<path d="M22.2857 0.857178H15.4286C14.9552 0.857178 14.5714 1.24093 14.5714 1.71432V5.16003C14.5714 5.63342 14.9552 6.01718 15.4286 6.01718H22.2857C22.759 6.01718 23.1428 5.63342 23.1428 5.16003V1.71432C23.1428 1.24093 22.759 0.857178 22.2857 0.857178Z" stroke="black" stroke-width="2" stroke-linecap="round" stroke-linejoin="round"/>
<path d="M8.57146 0.857178H1.71432C1.24093 0.857178 0.857178 1.24093 0.857178 1.71432V12C0.857178 12.4734 1.24093 12.8572 1.71432 12.8572H8.57146C9.04485 12.8572 9.42861 12.4734 9.42861 12V1.71432C9.42861 1.24093 9.04485 0.857178 8.57146 0.857178Z" stroke="black" stroke-width="2" stroke-linecap="round" stroke-linejoin="round"/>
<path d="M8.57146 17.9829H1.71432C1.24093 17.9829 0.857178 18.3666 0.857178 18.8401V22.2858C0.857178 22.7591 1.24093 23.1429 1.71432 23.1429H8.57146C9.04485 23.1429 9.42861 22.7591 9.42861 22.2858V18.8401C9.42861 18.3666 9.04485 17.9829 8.57146 17.9829Z" stroke="black" stroke-width="2" stroke-linecap="round" stroke-linejoin="round"/>
</g>
<defs>
<clipPath id="clip0_1222_36917">
<rect width="24" height="24" fill="white"/>
</clipPath>
</defs>
</svg>
