<?xml version="1.0" encoding="UTF-8"?>
<svg xmlns="http://www.w3.org/2000/svg" xmlns:xlink="http://www.w3.org/1999/xlink" width="24px" height="24px" viewBox="0 0 24 24" version="1.1">
<g id="surface1">
<path style=" stroke:none;fill-rule:nonzero;fill:rgb(0%,0%,0%);fill-opacity:1;" d="M 12 0 C 5.382812 0 0 5.382812 0 12 C 0 18.617188 5.382812 24 12 24 C 18.617188 24 24 18.617188 24 12 C 24 5.382812 18.617188 0 12 0 Z M 12 23 C 5.933594 23 1 18.066406 1 12 C 1 5.933594 5.933594 1 12 1 C 18.066406 1 23 5.933594 23 12 C 23 18.066406 18.066406 23 12 23 Z M 14.242188 5.816406 L 6 14.0625 L 6 18 L 9.9375 18 L 18.183594 9.757812 C 18.710938 9.230469 19 8.53125 19 7.785156 C 19 7.042969 18.710938 6.34375 18.183594 5.816406 C 17.128906 4.761719 15.296875 4.761719 14.242188 5.816406 Z M 9.523438 17 L 7 17 L 7 14.476562 L 12.597656 8.878906 L 15.121094 11.402344 Z M 17.476562 9.050781 L 15.828125 10.695312 L 13.304688 8.171875 L 14.949219 6.523438 C 15.628906 5.847656 16.800781 5.847656 17.476562 6.523438 C 17.8125 6.863281 18 7.308594 18 7.785156 C 18 8.265625 17.8125 8.710938 17.476562 9.050781 Z M 17.476562 9.050781 "/>
</g>
</svg>
